# Blender 4.5.0
# www.blender.org
mtllib chair.mtl
o Cube
v 0.205000 0.675000 0.175000
v -0.205000 0.675000 0.175000
v 0.205000 0.625000 -0.225000
v -0.205000 0.625000 -0.225000
v 0.205000 0.675000 -0.225000
v -0.205000 0.675000 -0.225000
v -0.205000 1.125000 -0.275000
v 0.205000 1.125000 -0.275000
v -0.205000 0.625000 0.225000
v 0.205000 0.625000 0.225000
v 0.225000 0.675000 -0.175000
v 0.225000 0.625000 -0.175000
v 0.225000 0.675000 0.175000
v 0.225000 0.625000 0.175000
v 0.225000 0.675000 -0.225000
v 0.225000 0.625000 -0.225000
v 0.225000 1.125000 -0.275000
v 0.225000 0.675000 0.225000
v 0.225000 0.625000 0.225000
v -0.225000 0.625000 -0.175000
v -0.225000 0.625000 0.175000
v -0.225000 0.675000 0.175000
v -0.225000 0.675000 -0.175000
v -0.225000 0.675000 -0.225000
v -0.225000 0.625000 -0.225000
v -0.225000 1.125000 -0.275000
v -0.225000 0.625000 0.225000
v -0.225000 0.675000 0.225000
v 0.205000 0.585027 0.175000
v 0.205000 0.625000 0.135027
v 0.224950 0.625000 0.175000
v 0.205000 0.605014 0.169645
v 0.205000 0.619645 0.155014
v -0.205000 0.625000 0.135027
v -0.205000 0.585027 0.175000
v -0.224950 0.625000 0.175000
v -0.205000 0.619645 0.155014
v -0.205000 0.605014 0.169645
v -0.205000 0.635027 0.225000
v -0.205000 0.675000 0.185027
v -0.224950 0.675000 0.225000
v -0.205000 0.655014 0.219645
v -0.205000 0.669645 0.205014
v 0.205000 0.675000 0.185027
v 0.205000 0.635027 0.225000
v 0.224950 0.675000 0.225000
v 0.205000 0.669645 0.205014
v 0.205000 0.655014 0.219645
v 0.205000 0.715000 -0.175000
v 0.205000 0.675000 -0.135000
v 0.224950 0.675000 -0.175000
v 0.205000 0.695000 -0.169641
v 0.205000 0.680359 -0.155000
v 0.205000 0.625000 -0.135000
v 0.205000 0.585000 -0.175000
v 0.224950 0.625000 -0.175000
v 0.205000 0.619641 -0.155000
v 0.205000 0.605000 -0.169641
v -0.205000 0.675000 -0.135000
v -0.205000 0.715000 -0.175000
v -0.224950 0.675000 -0.175000
v -0.205000 0.680359 -0.155000
v -0.205000 0.695000 -0.169641
v -0.205000 0.585000 -0.175000
v -0.205000 0.625000 -0.135000
v -0.224950 0.625000 -0.175000
v -0.205000 0.605000 -0.169641
v -0.205000 0.619641 -0.155000
v -0.205000 1.115185 -0.253085
v -0.205000 1.125000 -0.265000
v 0.205000 1.115185 -0.253085
v 0.205000 1.125000 -0.265000
v 0.225000 1.125000 -0.265000
v 0.225000 1.115154 -0.253250
v -0.225000 1.115154 -0.253250
v -0.225000 1.125000 -0.265000
v -0.205000 0.234923 0.273760
v -0.205000 0.225000 0.265000
v 0.205000 0.225000 0.265000
v 0.205000 0.234923 0.273760
v 0.225000 0.234923 0.273760
v 0.225000 0.225000 0.265000
v -0.225000 0.225000 0.265000
v -0.225000 0.234923 0.273760
v -0.205000 0.225000 0.235000
v -0.205000 0.234905 0.223624
v 0.205000 0.225000 0.235000
v 0.205000 0.234905 0.223624
v 0.225000 0.225000 0.235000
v 0.225000 0.234923 0.223760
v -0.225000 0.234923 0.223760
v -0.225000 0.225000 0.235000
v 0.205000 0.234923 -0.273760
v 0.205000 0.225000 -0.265000
v -0.205000 0.234923 -0.273760
v -0.205000 0.225000 -0.265000
v 0.225000 0.225000 -0.265000
v 0.225000 0.234923 -0.273760
v -0.225000 0.234923 -0.273760
v -0.225000 0.225000 -0.265000
v 0.205000 0.234905 -0.223624
v 0.205000 0.225000 -0.235000
v -0.205000 0.225000 -0.235000
v -0.205000 0.234905 -0.223624
v 0.225000 0.234923 -0.223760
v 0.225000 0.225000 -0.235000
v -0.225000 0.225000 -0.235000
v -0.225000 0.234923 -0.223760
vn -0.0000 -0.1104 -0.9939
vn -0.0000 -0.0000 -1.0000
vn 0.9511 -0.0403 0.3061
vn 0.8957 0.3440 0.2818
vn 0.7071 0.7071 -0.0000
vn 0.9511 -0.0403 -0.3061
vn 1.0000 -0.0000 -0.0000
vn 0.5774 0.5774 0.5774
vn 0.7214 0.0430 0.6912
vn -1.0000 -0.0000 -0.0000
vn 0.1885 -0.1473 -0.9710
vn 0.5481 -0.3427 -0.7630
vn 0.3157 -0.2491 -0.9156
vn 0.6682 -0.5261 -0.5261
vn 0.4604 -0.8575 -0.2298
vn -0.4604 -0.8575 -0.2298
vn -0.6682 -0.5261 -0.5261
vn -0.4604 -0.2298 -0.8575
vn 0.0389 0.0845 0.9957
vn 0.3005 0.4361 0.8483
vn 0.2042 0.6922 0.6922
vn 0.3005 0.8483 0.4361
vn 0.0389 0.9957 0.0845
vn -0.0389 0.9957 0.0845
vn -0.2029 0.8941 0.3993
vn -0.0538 0.7418 0.6684
vn -0.6682 0.5261 0.5261
vn -0.4604 0.2298 0.8575
vn -0.0000 -0.9659 -0.2588
vn -0.0000 -0.7071 -0.7071
vn -0.0000 -0.2588 -0.9659
vn -0.0000 0.5000 0.8660
vn -0.0000 0.0703 0.9975
vn -0.0000 0.0621 0.9981
vn -0.0000 0.7071 0.7071
vn -0.0000 1.0000 -0.0000
vn 0.1167 0.2087 0.9710
vn 0.3006 0.4360 0.8482
vn 0.2755 0.7274 0.6285
vn 0.3006 0.8482 0.4360
vn 0.4606 -0.8574 0.2297
vn 0.6685 -0.5259 0.5259
vn 0.3883 -0.3285 0.8610
vn 0.3159 -0.2491 0.9155
vn 0.0951 -0.1737 0.9802
vn -0.2030 0.8941 0.3993
vn -0.1580 0.7882 0.5948
vn -0.6685 0.5259 0.5259
vn -0.4606 0.2297 0.8574
vn -0.4606 -0.2297 0.8574
vn -0.6685 -0.5259 0.5259
vn -0.4606 -0.8574 0.2297
vn -0.0000 -0.9659 0.2588
vn -0.0000 -0.7071 0.7071
vn -0.0000 -0.2588 0.9659
vn -0.0611 -0.1672 0.9840
vn -0.0844 0.2054 0.9750
vn -0.0000 -1.0000 -0.0000
vn -0.1197 0.7680 0.6291
vn -0.0997 0.5068 0.8563
vn -0.0499 0.5094 0.8591
vn -0.0009 0.9409 0.3387
vn -0.0017 0.9405 0.3397
vn 0.0499 0.5094 0.8591
vn 0.0009 0.9409 0.3387
vn 0.6382 0.7241 0.2615
vn 0.6822 0.3724 0.6292
vn 0.6808 0.7324 -0.0000
vn -0.0000 -0.6618 0.7497
vn -0.0000 0.1240 0.9923
vn 0.8251 0.0701 0.5606
vn 0.0026 -0.7519 -0.6592
vn -0.0000 -0.7542 -0.6567
vn -0.0026 -0.7519 -0.6592
vn -0.1326 -0.1293 -0.9827
vn -0.0000 -0.1376 -0.9905
vn 0.1326 -0.1293 -0.9827
vn 0.8602 -0.0665 -0.5056
vn -0.0000 -0.6618 -0.7497
vn -0.0000 0.1240 -0.9923
vn 0.0026 -0.7519 0.6592
vn -0.0026 -0.7519 0.6592
vn -0.0000 -0.7542 0.6567
vn 0.0665 -0.1337 0.9888
vn 0.8602 -0.0665 0.5055
vn -0.0665 -0.1337 0.9888
vn -0.1327 -0.1293 0.9827
vt 0.625000 0.250000
vt 0.375000 0.250000
vt 0.625000 0.500000
vt 0.375000 0.500000
vt 0.625000 0.750000
vt 0.375000 0.750000
vt 0.625000 0.000000
vt 0.375000 0.000000
vt 0.375000 0.750000
vt 0.125000 0.721448
vt 0.125000 0.735724
vt 0.125000 0.750000
vt 0.125000 0.746175
vt 0.125000 0.750000
vt 0.425137 1.000000
vt 0.525069 1.000000
vt 0.625000 1.000000
vt 0.598224 1.000000
vt 0.625000 1.000000
vt 0.625000 0.750000
vt 0.598224 0.750000
vt 0.625000 0.750000
vt 0.525069 0.750000
vt 0.625000 0.750000
vt 0.425137 0.750000
vt 0.375000 0.721448
vt 0.375000 0.735724
vt 0.875000 0.750000
vt 0.525069 1.000000
vt 0.525069 0.750000
vt 0.375000 1.000000
vt 0.875000 0.750000
vt 0.625000 0.500000
vt 0.625000 0.500000
vt 0.375000 0.528571
vt 0.375000 0.514286
vt 0.375000 0.503828
vt 0.375000 0.500000
vt 0.875000 0.528571
vt 0.875000 0.514286
vt 0.875000 0.500000
vt 0.875000 0.503828
vt 0.125000 0.500000
vt 0.125000 0.528571
vt 0.125000 0.514286
vt 0.375000 0.500000
vt 0.375000 0.500000
vt 0.625000 0.528571
vt 0.625000 0.514286
vt 0.875000 0.500000
vt 0.875000 0.500000
vt 0.875000 0.500000
vt 0.625000 0.500000
vt 0.625000 0.500000
vt 0.375000 1.000000
vt 0.375000 0.250000
vt 0.125000 0.500000
s 0
usemtl Material
f 7/1/1 6/1/1 24/1/1 26/1/1
f 4/2/2 6/1/2 5/3/2 3/4/2
f 5/3/1 6/1/1 7/1/1 8/3/1
f 5/3/1 8/3/1 17/3/1 15/3/1
s 1
f 12/4/3 11/3/4 13/5/5 14/6/6
f 11/3/4 12/4/3 16/4/7 15/3/7
f 14/6/6 13/5/5 18/5/8 19/6/9
s 0
f 3/4/2 5/3/2 15/3/2 16/4/2
f 22/7/10 21/8/10 27/8/10 28/7/10
f 21/8/10 22/7/10 23/1/10 20/2/10
f 20/2/10 23/1/10 24/1/10 25/2/10
f 6/1/2 4/2/2 25/2/2 24/1/2
s 1
f 29/9/11 32/6/12 31/9/13
f 32/6/12 33/6/14 31/9/13
s 0
f 33/6/15 30/6/15 31/9/15
f 34/10/16 37/11/16 36/12/16
f 37/11/17 38/13/17 36/12/17
f 38/13/18 35/14/18 36/12/18
s 1
f 39/15/19 42/16/20 41/17/21
f 42/16/20 43/18/22 41/19/21
f 43/18/22 40/19/23 41/19/21
f 44/20/24 47/21/25 46/22/26
s 0
f 47/21/27 48/23/27 46/24/27
f 48/23/28 45/25/28 46/24/28
f 34/10/29 30/26/29 33/27/29 37/11/29
f 37/11/30 33/27/30 32/9/30 38/12/30
f 38/12/31 32/9/31 29/9/31 35/14/31
s 1
f 44/20/24 40/28/23 43/28/22 47/24/25
f 47/24/25 43/19/22 42/29/20 48/30/32
f 48/30/32 42/29/20 39/15/19 45/25/33
f 9/31/34 39/15/19 41/17/21 28/19/35 27/31/34
f 10/6/34 45/25/33 39/15/19 9/31/34
f 1/5/36 2/28/36 40/28/23 44/20/24
f 41/32/21 40/28/23 2/28/36 22/28/36 28/28/35
f 46/22/26 45/25/33 10/6/34 19/6/9 18/5/8
f 1/5/36 44/20/24 46/22/26 18/5/8 13/5/5
f 49/33/37 52/3/38 51/34/39
f 52/3/38 53/3/40 51/3/39
f 53/3/40 50/3/23 51/3/39
s 0
f 54/35/41 57/36/41 56/4/41
s 1
f 57/36/42 58/37/43 56/38/44
f 58/37/43 55/4/45 56/38/44
f 59/39/24 62/40/46 61/41/47
s 0
f 62/40/48 63/42/48 61/41/48
f 63/42/49 60/41/49 61/41/49
f 64/43/50 67/43/50 66/43/50
f 67/43/51 68/43/51 66/43/51
f 68/43/52 65/43/52 66/43/52
f 54/35/53 65/44/53 68/45/53 57/36/53
f 57/36/54 68/45/54 67/43/54 58/46/54
s 1
f 58/46/43 67/43/55 64/43/56 55/47/45
f 59/39/24 50/48/23 53/49/40 62/40/46
f 62/40/46 53/49/40 52/3/38 63/41/32
f 63/41/32 52/3/38 49/33/37 60/50/57
f 51/34/39 50/48/23 1/5/36 13/5/5 11/3/4
f 50/48/23 59/39/24 2/28/36 1/5/36
s 0
f 65/44/58 54/35/58 30/26/58 34/10/58
f 31/9/58 30/26/58 54/35/58 56/4/58 12/4/58 14/6/58
s 1
f 2/28/36 59/39/24 61/41/47 23/41/59 22/28/36
s 0
f 66/43/58 65/44/58 34/10/58 36/12/58 21/14/58 20/43/58
s 1
f 75/51/60 69/52/61 70/52/62 76/51/63
f 69/52/61 71/53/64 72/54/65 70/52/62
f 73/3/66 72/54/65 71/53/64 74/33/67
f 61/41/47 60/50/57 69/52/61 75/51/60 23/41/59
f 70/52/62 72/54/65 8/3/36 7/41/36
f 70/52/62 7/41/36 26/41/36 76/51/63
f 60/50/57 49/33/37 71/53/64 69/52/61
f 8/3/36 72/54/65 73/3/66 17/3/68
f 71/53/64 49/33/37 51/34/39 11/3/4 74/33/67
f 11/3/4 15/3/7 17/3/68 73/3/66 74/33/67
s 0
f 24/1/10 23/1/10 75/1/10 76/1/10 26/1/10
f 78/12/69 79/9/69 80/6/69 77/12/69
f 81/6/69 80/6/69 79/9/69 82/9/69
f 77/12/69 84/14/69 83/14/69 78/12/69
s 1
f 10/6/34 9/31/34 77/55/70 80/6/70
f 77/55/70 9/31/34 27/31/34 84/31/70
f 10/6/34 80/6/70 81/6/71 19/6/9
s 0
f 88/9/72 90/9/72 89/6/72 87/6/72
f 86/12/73 88/9/73 87/6/73 85/14/73
f 91/14/74 86/12/74 85/14/74 92/12/74
f 85/14/58 87/6/58 79/9/58 78/12/58
f 36/12/75 35/14/75 86/12/75 91/14/75 21/14/75
f 35/14/76 29/9/76 88/9/76 86/12/76
f 85/14/58 78/12/58 83/14/58 92/12/58
f 79/9/58 87/6/58 89/6/58 82/9/58
s 1
f 88/9/77 29/9/11 31/9/13 14/6/6 90/9/78
f 14/6/6 19/6/9 81/6/71 82/9/7 89/6/7 90/9/78
s 0
f 27/8/10 21/8/10 91/8/10 92/8/10 83/8/10 84/8/10
f 99/43/79 95/43/79 96/43/79 100/43/79
f 94/38/79 96/43/79 95/43/79 93/4/79
f 97/46/79 94/38/79 93/4/79 98/4/79
f 4/2/80 3/4/80 93/4/80 95/56/80
f 93/4/80 3/4/80 16/4/80 98/4/80
f 4/2/80 95/56/80 99/2/80 25/2/80
f 102/46/81 106/4/81 105/46/81 101/4/81
f 104/43/82 108/43/82 107/57/82 103/43/82
f 101/4/83 104/43/83 103/43/83 102/46/83
f 102/46/58 94/38/58 97/46/58 106/4/58
s 1
f 56/4/44 55/47/45 101/4/84 105/46/85 12/4/3
s 0
f 102/46/58 103/43/58 96/43/58 94/38/58
s 1
f 55/47/45 64/43/56 104/43/86 101/4/84
s 0
f 96/43/58 103/43/58 107/57/58 100/43/58
s 1
f 104/43/86 64/43/56 66/43/87 20/43/87 108/43/87
f 16/4/7 12/4/3 105/46/85 106/4/7 97/46/7 98/4/7
s 0
f 20/2/10 25/2/10 99/2/10 100/2/10 107/2/10 108/2/10
o Cube.001
v 0.205000 0.675000 0.175000
v -0.205000 0.675000 0.175000
v 0.205000 0.625000 -0.225000
v -0.205000 0.625000 -0.225000
v 0.205000 0.675000 -0.225000
v -0.205000 0.675000 -0.225000
v -0.205000 1.125000 -0.275000
v 0.205000 1.125000 -0.275000
v -0.205000 0.625000 0.225000
v 0.205000 0.625000 0.225000
v 0.225000 0.675000 -0.175000
v 0.225000 0.625000 -0.175000
v 0.225000 0.675000 0.175000
v 0.225000 0.625000 0.175000
v 0.225000 0.675000 -0.225000
v 0.225000 0.625000 -0.225000
v 0.225000 1.125000 -0.275000
v 0.225000 0.675000 0.225000
v 0.225000 0.625000 0.225000
v -0.225000 0.625000 -0.175000
v -0.225000 0.625000 0.175000
v -0.225000 0.675000 0.175000
v -0.225000 0.675000 -0.175000
v -0.225000 0.675000 -0.225000
v -0.225000 0.625000 -0.225000
v -0.225000 1.125000 -0.275000
v -0.225000 0.625000 0.225000
v -0.225000 0.675000 0.225000
v 0.205000 0.585027 0.175000
v 0.205000 0.625000 0.135027
v 0.224950 0.625000 0.175000
v 0.205000 0.605014 0.169645
v 0.205000 0.619645 0.155014
v -0.205000 0.625000 0.135027
v -0.205000 0.585027 0.175000
v -0.224950 0.625000 0.175000
v -0.205000 0.619645 0.155014
v -0.205000 0.605014 0.169645
v -0.205000 0.635027 0.225000
v -0.205000 0.675000 0.185027
v -0.224950 0.675000 0.225000
v -0.205000 0.655014 0.219645
v -0.205000 0.669645 0.205014
v 0.205000 0.675000 0.185027
v 0.205000 0.635027 0.225000
v 0.224950 0.675000 0.225000
v 0.205000 0.669645 0.205014
v 0.205000 0.655014 0.219645
v 0.205000 0.715000 -0.175000
v 0.205000 0.675000 -0.135000
v 0.224950 0.675000 -0.175000
v 0.205000 0.695000 -0.169641
v 0.205000 0.680359 -0.155000
v 0.205000 0.625000 -0.135000
v 0.205000 0.585000 -0.175000
v 0.224950 0.625000 -0.175000
v 0.205000 0.619641 -0.155000
v 0.205000 0.605000 -0.169641
v -0.205000 0.675000 -0.135000
v -0.205000 0.715000 -0.175000
v -0.224950 0.675000 -0.175000
v -0.205000 0.680359 -0.155000
v -0.205000 0.695000 -0.169641
v -0.205000 0.585000 -0.175000
v -0.205000 0.625000 -0.135000
v -0.224950 0.625000 -0.175000
v -0.205000 0.605000 -0.169641
v -0.205000 0.619641 -0.155000
v -0.205000 1.115185 -0.253085
v -0.205000 1.125000 -0.265000
v 0.205000 1.115185 -0.253085
v 0.205000 1.125000 -0.265000
v 0.225000 1.125000 -0.265000
v 0.225000 1.115154 -0.253250
v -0.225000 1.115154 -0.253250
v -0.225000 1.125000 -0.265000
v -0.205000 0.234923 0.273760
v -0.205000 0.225000 0.265000
v 0.205000 0.225000 0.265000
v 0.205000 0.234923 0.273760
v 0.225000 0.234923 0.273760
v 0.225000 0.225000 0.265000
v -0.225000 0.225000 0.265000
v -0.225000 0.234923 0.273760
v -0.205000 0.225000 0.235000
v -0.205000 0.234905 0.223624
v 0.205000 0.225000 0.235000
v 0.205000 0.234905 0.223624
v 0.225000 0.225000 0.235000
v 0.225000 0.234923 0.223760
v -0.225000 0.234923 0.223760
v -0.225000 0.225000 0.235000
v 0.205000 0.234923 -0.273760
v 0.205000 0.225000 -0.265000
v -0.205000 0.234923 -0.273760
v -0.205000 0.225000 -0.265000
v 0.225000 0.225000 -0.265000
v 0.225000 0.234923 -0.273760
v -0.225000 0.234923 -0.273760
v -0.225000 0.225000 -0.265000
v 0.205000 0.234905 -0.223624
v 0.205000 0.225000 -0.235000
v -0.205000 0.225000 -0.235000
v -0.205000 0.234905 -0.223624
v 0.225000 0.234923 -0.223760
v 0.225000 0.225000 -0.235000
v -0.225000 0.225000 -0.235000
v -0.225000 0.234923 -0.223760
vn -0.0000 -0.1104 -0.9939
vn -0.0000 -0.0000 -1.0000
vn 0.9511 -0.0403 0.3061
vn 0.8957 0.3440 0.2818
vn 0.7071 0.7071 -0.0000
vn 0.9511 -0.0403 -0.3061
vn 1.0000 -0.0000 -0.0000
vn 0.5774 0.5774 0.5774
vn 0.7214 0.0430 0.6912
vn -1.0000 -0.0000 -0.0000
vn 0.1885 -0.1473 -0.9710
vn 0.5481 -0.3427 -0.7630
vn 0.3157 -0.2491 -0.9156
vn 0.6682 -0.5261 -0.5261
vn 0.4604 -0.8575 -0.2298
vn -0.4604 -0.8575 -0.2298
vn -0.6682 -0.5261 -0.5261
vn -0.4604 -0.2298 -0.8575
vn 0.0389 0.0845 0.9957
vn 0.3005 0.4361 0.8483
vn 0.2042 0.6922 0.6922
vn 0.3005 0.8483 0.4361
vn 0.0389 0.9957 0.0845
vn -0.0389 0.9957 0.0845
vn -0.2029 0.8941 0.3993
vn -0.0538 0.7418 0.6684
vn -0.6682 0.5261 0.5261
vn -0.4604 0.2298 0.8575
vn -0.0000 -0.9659 -0.2588
vn -0.0000 -0.7071 -0.7071
vn -0.0000 -0.2588 -0.9659
vn -0.0000 0.5000 0.8660
vn -0.0000 0.0703 0.9975
vn -0.0000 0.0621 0.9981
vn -0.0000 0.7071 0.7071
vn -0.0000 1.0000 -0.0000
vn 0.1167 0.2087 0.9710
vn 0.3006 0.4360 0.8482
vn 0.2755 0.7274 0.6285
vn 0.3006 0.8482 0.4360
vn 0.4606 -0.8574 0.2297
vn 0.6685 -0.5259 0.5259
vn 0.3883 -0.3285 0.8610
vn 0.3159 -0.2491 0.9155
vn 0.0951 -0.1737 0.9802
vn -0.2030 0.8941 0.3993
vn -0.1580 0.7882 0.5948
vn -0.6685 0.5259 0.5259
vn -0.4606 0.2297 0.8574
vn -0.4606 -0.2297 0.8574
vn -0.6685 -0.5259 0.5259
vn -0.4606 -0.8574 0.2297
vn -0.0000 -0.9659 0.2588
vn -0.0000 -0.7071 0.7071
vn -0.0000 -0.2588 0.9659
vn -0.0611 -0.1672 0.9840
vn -0.0844 0.2054 0.9750
vn -0.0000 -1.0000 -0.0000
vn -0.1197 0.7680 0.6291
vn -0.0997 0.5068 0.8563
vn -0.0499 0.5094 0.8591
vn -0.0009 0.9409 0.3387
vn -0.0017 0.9405 0.3397
vn 0.0499 0.5094 0.8591
vn 0.0009 0.9409 0.3387
vn 0.6382 0.7241 0.2615
vn 0.6822 0.3724 0.6292
vn 0.6808 0.7324 -0.0000
vn -0.0000 -0.6618 0.7497
vn -0.0000 0.1240 0.9923
vn 0.8251 0.0701 0.5606
vn 0.0026 -0.7519 -0.6592
vn -0.0000 -0.7542 -0.6567
vn -0.0026 -0.7519 -0.6592
vn -0.1326 -0.1293 -0.9827
vn -0.0000 -0.1376 -0.9905
vn 0.1326 -0.1293 -0.9827
vn 0.8602 -0.0665 -0.5056
vn -0.0000 -0.6618 -0.7497
vn -0.0000 0.1240 -0.9923
vn 0.0026 -0.7519 0.6592
vn -0.0026 -0.7519 0.6592
vn -0.0000 -0.7542 0.6567
vn 0.0665 -0.1337 0.9888
vn 0.8602 -0.0665 0.5055
vn -0.0665 -0.1337 0.9888
vn -0.1327 -0.1293 0.9827
vt 0.625000 0.250000
vt 0.375000 0.250000
vt 0.625000 0.500000
vt 0.375000 0.500000
vt 0.625000 0.750000
vt 0.375000 0.750000
vt 0.625000 0.000000
vt 0.375000 0.000000
vt 0.375000 0.750000
vt 0.125000 0.721448
vt 0.125000 0.735724
vt 0.125000 0.750000
vt 0.125000 0.746175
vt 0.125000 0.750000
vt 0.425137 1.000000
vt 0.525069 1.000000
vt 0.625000 1.000000
vt 0.598224 1.000000
vt 0.625000 1.000000
vt 0.625000 0.750000
vt 0.598224 0.750000
vt 0.625000 0.750000
vt 0.525069 0.750000
vt 0.625000 0.750000
vt 0.425137 0.750000
vt 0.375000 0.721448
vt 0.375000 0.735724
vt 0.875000 0.750000
vt 0.525069 1.000000
vt 0.525069 0.750000
vt 0.375000 1.000000
vt 0.875000 0.750000
vt 0.625000 0.500000
vt 0.625000 0.500000
vt 0.375000 0.528571
vt 0.375000 0.514286
vt 0.375000 0.503828
vt 0.375000 0.500000
vt 0.875000 0.528571
vt 0.875000 0.514286
vt 0.875000 0.500000
vt 0.875000 0.503828
vt 0.125000 0.500000
vt 0.125000 0.528571
vt 0.125000 0.514286
vt 0.375000 0.500000
vt 0.375000 0.500000
vt 0.625000 0.528571
vt 0.625000 0.514286
vt 0.875000 0.500000
vt 0.875000 0.500000
vt 0.875000 0.500000
vt 0.625000 0.500000
vt 0.625000 0.500000
vt 0.375000 1.000000
vt 0.375000 0.250000
vt 0.125000 0.500000
s 0
usemtl Material.001
f 115/58/88 114/58/88 132/58/88 134/58/88
f 112/59/89 114/58/89 113/60/89 111/61/89
f 113/60/88 114/58/88 115/58/88 116/60/88
f 113/60/88 116/60/88 125/60/88 123/60/88
s 1
f 120/61/90 119/60/91 121/62/92 122/63/93
f 119/60/91 120/61/90 124/61/94 123/60/94
f 122/63/93 121/62/92 126/62/95 127/63/96
s 0
f 111/61/89 113/60/89 123/60/89 124/61/89
f 130/64/97 129/65/97 135/65/97 136/64/97
f 129/65/97 130/64/97 131/58/97 128/59/97
f 128/59/97 131/58/97 132/58/97 133/59/97
f 114/58/89 112/59/89 133/59/89 132/58/89
s 1
f 137/66/98 140/63/99 139/66/100
f 140/63/99 141/63/101 139/66/100
s 0
f 141/63/102 138/63/102 139/66/102
f 142/67/103 145/68/103 144/69/103
f 145/68/104 146/70/104 144/69/104
f 146/70/105 143/71/105 144/69/105
s 1
f 147/72/106 150/73/107 149/74/108
f 150/73/107 151/75/109 149/76/108
f 151/75/109 148/76/110 149/76/108
f 152/77/111 155/78/112 154/79/113
s 0
f 155/78/114 156/80/114 154/81/114
f 156/80/115 153/82/115 154/81/115
f 142/67/116 138/83/116 141/84/116 145/68/116
f 145/68/117 141/84/117 140/66/117 146/69/117
f 146/69/118 140/66/118 137/66/118 143/71/118
s 1
f 152/77/111 148/85/110 151/85/109 155/81/112
f 155/81/112 151/76/109 150/86/107 156/87/119
f 156/87/119 150/86/107 147/72/106 153/82/120
f 117/88/121 147/72/106 149/74/108 136/76/122 135/88/121
f 118/63/121 153/82/120 147/72/106 117/88/121
f 109/62/123 110/85/123 148/85/110 152/77/111
f 149/89/108 148/85/110 110/85/123 130/85/123 136/85/122
f 154/79/113 153/82/120 118/63/121 127/63/96 126/62/95
f 109/62/123 152/77/111 154/79/113 126/62/95 121/62/92
f 157/90/124 160/60/125 159/91/126
f 160/60/125 161/60/127 159/60/126
f 161/60/127 158/60/110 159/60/126
s 0
f 162/92/128 165/93/128 164/61/128
s 1
f 165/93/129 166/94/130 164/95/131
f 166/94/130 163/61/132 164/95/131
f 167/96/111 170/97/133 169/98/134
s 0
f 170/97/135 171/99/135 169/98/135
f 171/99/136 168/98/136 169/98/136
f 172/100/137 175/100/137 174/100/137
f 175/100/138 176/100/138 174/100/138
f 176/100/139 173/100/139 174/100/139
f 162/92/140 173/101/140 176/102/140 165/93/140
f 165/93/141 176/102/141 175/100/141 166/103/141
s 1
f 166/103/130 175/100/142 172/100/143 163/104/132
f 167/96/111 158/105/110 161/106/127 170/97/133
f 170/97/133 161/106/127 160/60/125 171/98/119
f 171/98/119 160/60/125 157/90/124 168/107/144
f 159/91/126 158/105/110 109/62/123 121/62/92 119/60/91
f 158/105/110 167/96/111 110/85/123 109/62/123
s 0
f 173/101/145 162/92/145 138/83/145 142/67/145
f 139/66/145 138/83/145 162/92/145 164/61/145 120/61/145 122/63/145
s 1
f 110/85/123 167/96/111 169/98/134 131/98/146 130/85/123
s 0
f 174/100/145 173/101/145 142/67/145 144/69/145 129/71/145 128/100/145
s 1
f 183/108/147 177/109/148 178/109/149 184/108/150
f 177/109/148 179/110/151 180/111/152 178/109/149
f 181/60/153 180/111/152 179/110/151 182/90/154
f 169/98/134 168/107/144 177/109/148 183/108/147 131/98/146
f 178/109/149 180/111/152 116/60/123 115/98/123
f 178/109/149 115/98/123 134/98/123 184/108/150
f 168/107/144 157/90/124 179/110/151 177/109/148
f 116/60/123 180/111/152 181/60/153 125/60/155
f 179/110/151 157/90/124 159/91/126 119/60/91 182/90/154
f 119/60/91 123/60/94 125/60/155 181/60/153 182/90/154
s 0
f 132/58/97 131/58/97 183/58/97 184/58/97 134/58/97
f 186/69/156 187/66/156 188/63/156 185/69/156
f 189/63/156 188/63/156 187/66/156 190/66/156
f 185/69/156 192/71/156 191/71/156 186/69/156
s 1
f 118/63/121 117/88/121 185/112/157 188/63/157
f 185/112/157 117/88/121 135/88/121 192/88/157
f 118/63/121 188/63/157 189/63/158 127/63/96
s 0
f 196/66/159 198/66/159 197/63/159 195/63/159
f 194/69/160 196/66/160 195/63/160 193/71/160
f 199/71/161 194/69/161 193/71/161 200/69/161
f 193/71/145 195/63/145 187/66/145 186/69/145
f 144/69/162 143/71/162 194/69/162 199/71/162 129/71/162
f 143/71/163 137/66/163 196/66/163 194/69/163
f 193/71/145 186/69/145 191/71/145 200/69/145
f 187/66/145 195/63/145 197/63/145 190/66/145
s 1
f 196/66/164 137/66/98 139/66/100 122/63/93 198/66/165
f 122/63/93 127/63/96 189/63/158 190/66/94 197/63/94 198/66/165
s 0
f 135/65/97 129/65/97 199/65/97 200/65/97 191/65/97 192/65/97
f 207/100/166 203/100/166 204/100/166 208/100/166
f 202/95/166 204/100/166 203/100/166 201/61/166
f 205/103/166 202/95/166 201/61/166 206/61/166
f 112/59/167 111/61/167 201/61/167 203/113/167
f 201/61/167 111/61/167 124/61/167 206/61/167
f 112/59/167 203/113/167 207/59/167 133/59/167
f 210/103/168 214/61/168 213/103/168 209/61/168
f 212/100/169 216/100/169 215/114/169 211/100/169
f 209/61/170 212/100/170 211/100/170 210/103/170
f 210/103/145 202/95/145 205/103/145 214/61/145
s 1
f 164/61/131 163/104/132 209/61/171 213/103/172 120/61/90
s 0
f 210/103/145 211/100/145 204/100/145 202/95/145
s 1
f 163/104/132 172/100/143 212/100/173 209/61/171
s 0
f 204/100/145 211/100/145 215/114/145 208/100/145
s 1
f 212/100/173 172/100/143 174/100/174 128/100/174 216/100/174
f 124/61/94 120/61/90 213/103/172 214/61/94 205/103/94 206/61/94
s 0
f 128/59/97 133/59/97 207/59/97 208/59/97 215/59/97 216/59/97
